<mxfile host="app.diagrams.net" modified="2024-06-19T04:50:25.067Z" agent="Mozilla/5.0 (Windows NT 10.0; Win64; x64) AppleWebKit/537.36 (KHTML, like Gecko) Chrome/126.0.0.0 Safari/537.36" etag="9GR5IntZMhcFmk4KSZ5_" version="24.5.5" type="github">
  <diagram name="페이지-1" id="W8fe8oMru-MlR13-pAfN">
    <mxGraphModel dx="1434" dy="746" grid="1" gridSize="10" guides="1" tooltips="1" connect="1" arrows="1" fold="1" page="1" pageScale="1" pageWidth="827" pageHeight="1169" math="0" shadow="0">
      <root>
        <mxCell id="0" />
        <mxCell id="1" parent="0" />
        <mxCell id="I6dmkuQ5_bZTAHopNDpf-1" value="이용자" style="shape=umlActor;verticalLabelPosition=bottom;verticalAlign=top;html=1;outlineConnect=0;" vertex="1" parent="1">
          <mxGeometry x="50" y="190" width="30" height="60" as="geometry" />
        </mxCell>
        <mxCell id="I6dmkuQ5_bZTAHopNDpf-2" value="게시판 서비스" style="shape=umlFrame;whiteSpace=wrap;html=1;pointerEvents=0;width=100;height=20;" vertex="1" parent="1">
          <mxGeometry x="180" y="110" width="490" height="570" as="geometry" />
        </mxCell>
      </root>
    </mxGraphModel>
  </diagram>
</mxfile>
